<svg xmlns="http://www.w3.org/2000/svg" viewBox="0 0 1280 800" role="img">
<title>Cinder launcher — client mockup</title>
<defs>
<linearGradient id="emberGrad" x1="0" y1="0" x2="1" y2="0">
<stop offset="0" stop-color="#FFA14D"/>
<stop offset="1" stop-color="#FF6B1A"/>
</linearGradient>
<linearGradient id="progGrad" x1="0" y1="0" x2="1" y2="0">
<stop offset="0" stop-color="#E06A1F"/>
<stop offset="0.6" stop-color="#FFA14D"/>
<stop offset="1" stop-color="#FF7A59"/>
</linearGradient>
<radialGradient id="stageGlow" cx="0.5" cy="0.4" r="0.8">
<stop offset="0" stop-color="#FF6B1A" stop-opacity="0.12"/>
<stop offset="1" stop-color="#FF6B1A" stop-opacity="0"/>
</radialGradient>
</defs>
<rect x="0" y="0" width="1280" height="800" fill="#06060F"/>
<rect x="0" y="0" width="1280" height="56" fill="#0A0A18"/>
<line x1="0" y1="56" x2="1280" y2="56" stroke="#8C8CFF" stroke-width="1" opacity="0.16"/>
<circle cx="32" cy="28" r="6" fill="#FF6B1A"/>
<circle cx="52" cy="28" r="6" fill="#FFD479"/>
<circle cx="72" cy="28" r="6" fill="#7DFF9A"/>
<g font-family="Consolas, Menlo, monospace">
<text x="100" y="34" font-size="17" font-weight="bold" fill="#E8E8F5">Cinder</text>
<text x="180" y="33" font-size="11" fill="#8F8FB0">client</text>
</g>
<rect x="1140" y="15" width="108" height="26" rx="13" fill="none" stroke="#8C8CFF" stroke-opacity="0.32"/>
<text x="1194" y="33" text-anchor="middle" font-family="Consolas, Menlo, monospace" font-size="11" fill="#8F8FB0">v0.1.0</text>
<rect x="0" y="56" width="200" height="744" fill="#12122B"/>
<line x1="200" y1="56" x2="200" y2="800" stroke="#8C8CFF" stroke-width="1" opacity="0.09"/>
<g transform="translate(28,76) scale(0.625)">
<polyline points="16,16 40,32" fill="none" stroke="#FFFFFF" stroke-width="8" stroke-linecap="square"/>
<polyline points="40,32 16,48" fill="none" stroke="#FF6B1A" stroke-width="8" stroke-linecap="square"/>
</g>
<text x="76" y="103" font-family="Consolas, Menlo, monospace" font-size="13" font-weight="bold" fill="#E8E8F5">CINDER</text>
<g font-family="Consolas, Menlo, monospace" font-size="12">
<rect x="16" y="124" width="168" height="40" rx="8" fill="#181836" stroke="#FF6B1A" stroke-width="1.5"/>
<rect x="16" y="124" width="4" height="40" fill="#FF6B1A"/>
<rect x="30" y="137" width="14" height="14" fill="#FF6B1A"/>
<text x="54" y="150" font-weight="bold" fill="#E8E8F5">Play</text>
<rect x="16" y="172" width="168" height="40" rx="8" fill="none" stroke="#8C8CFF" stroke-opacity="0.09"/>
<rect x="30" y="185" width="14" height="14" fill="none" stroke="#8F8FB0" stroke-width="2"/>
<text x="54" y="198" fill="#8F8FB0">Servers</text>
<rect x="16" y="220" width="168" height="40" rx="8" fill="none" stroke="#8C8CFF" stroke-opacity="0.09"/>
<rect x="30" y="233" width="14" height="14" fill="none" stroke="#8F8FB0" stroke-width="2"/>
<text x="54" y="246" fill="#8F8FB0">Versions</text>
<rect x="16" y="268" width="168" height="40" rx="8" fill="none" stroke="#8C8CFF" stroke-opacity="0.09"/>
<rect x="30" y="281" width="14" height="14" fill="none" stroke="#8F8FB0" stroke-width="2"/>
<text x="54" y="294" fill="#8F8FB0">Mods</text>
<rect x="16" y="316" width="168" height="40" rx="8" fill="none" stroke="#8C8CFF" stroke-opacity="0.09"/>
<rect x="30" y="329" width="14" height="14" fill="none" stroke="#8F8FB0" stroke-width="2"/>
<text x="54" y="342" fill="#8F8FB0">Skins</text>
<rect x="16" y="364" width="168" height="40" rx="8" fill="none" stroke="#8C8CFF" stroke-opacity="0.09"/>
<rect x="30" y="377" width="14" height="14" fill="none" stroke="#8F8FB0" stroke-width="2"/>
<text x="54" y="390" fill="#8F8FB0">Settings</text>
</g>
<circle cx="32" cy="742" r="5" fill="#7DFF9A"/>
<text x="46" y="746" font-family="Consolas, Menlo, monospace" font-size="11" fill="#8F8FB0">Online</text>
<g font-family="Consolas, Menlo, monospace">
<rect x="232" y="88" width="660" height="300" rx="10" fill="#101024" stroke="#8C8CFF" stroke-opacity="0.09"/>
<rect x="232" y="88" width="660" height="300" rx="10" fill="url(#stageGlow)"/>
<text x="264" y="128" font-size="11" font-weight="bold" letter-spacing="2" fill="#FFA14D">SERVER CONNECT</text>
<rect x="264" y="148" width="420" height="48" rx="7" fill="rgba(0,0,0,0.5)" stroke="#8C8CFF" stroke-opacity="0.32"/>
<text x="282" y="178" font-size="13" fill="#E8E8F5">mc.example.net</text>
<text x="620" y="178" font-size="11" font-weight="bold" fill="#7DFF9A">12 ms</text>
<rect x="700" y="148" width="160" height="48" rx="7" fill="url(#emberGrad)"/>
<text x="780" y="178" text-anchor="middle" font-size="13" font-weight="bold" fill="#101024">JOIN</text>
<rect x="264" y="216" width="200" height="26" rx="13" fill="none" stroke="#8C8CFF" stroke-opacity="0.16"/>
<circle cx="280" cy="229" r="5" fill="#7DFF9A"/>
<text x="294" y="233" font-size="11" fill="#8F8FB0">Survival-1.21.1</text>
<text x="264" y="272" font-size="10" font-weight="bold" letter-spacing="1" fill="#55556F">MEMORY — 4 OF 8 GB</text>
<rect x="264" y="284" width="596" height="12" rx="6" fill="rgba(0,0,0,0.5)"/>
<rect x="264" y="284" width="298" height="12" rx="6" fill="url(#progGrad)"/>
<circle cx="562" cy="290" r="10" fill="#FFA14D" stroke="#101024" stroke-width="3"/>
<text x="264" y="330" font-size="10" font-weight="bold" letter-spacing="1" fill="#55556F">VERSION</text>
<rect x="264" y="340" width="180" height="32" rx="7" fill="#181836" stroke="#8C8CFF" stroke-opacity="0.16"/>
<circle cx="282" cy="356" r="4" fill="#7DFF9A"/>
<text x="294" y="360" font-size="12" fill="#E8E8F5">1.21.1</text>
<rect x="456" y="340" width="180" height="32" rx="7" fill="none" stroke="#8C8CFF" stroke-opacity="0.16"/>
<circle cx="474" cy="356" r="4" fill="#FFD479"/>
<text x="486" y="360" font-size="12" fill="#8F8FB0">1.20.4</text>
<rect x="648" y="340" width="180" height="32" rx="7" fill="none" stroke="#8C8CFF" stroke-opacity="0.16"/>
<circle cx="666" cy="356" r="4" fill="#55556F"/>
<text x="678" y="360" font-size="12" fill="#8F8FB0">1.19.2</text>
<rect x="924" y="88" width="324" height="300" rx="10" fill="#101024" stroke="#8C8CFF" stroke-opacity="0.09"/>
<text x="952" y="128" font-size="11" font-weight="bold" letter-spacing="2" fill="#FFA14D">PROFILE</text>
<rect x="952" y="148" width="96" height="96" rx="8" fill="#181836" stroke="#FF6B1A" stroke-width="2"/>
<rect x="968" y="164" width="64" height="40" fill="#8C8CFF" opacity="0.8"/>
<rect x="980" y="176" width="14" height="10" fill="#101024"/>
<rect x="1006" y="176" width="14" height="10" fill="#101024"/>
<rect x="968" y="208" width="64" height="20" fill="#FF6B1A" opacity="0.85"/>
<rect x="1064" y="148" width="140" height="22" rx="4" fill="#181836"/>
<rect x="1064" y="178" width="100" height="16" rx="4" fill="#12122B"/>
<text x="1064" y="216" font-size="12" font-weight="bold" fill="#E8E8F5">Alex-42</text>
<text x="1064" y="234" font-size="11" fill="#7DFF9A">● premium</text>
<rect x="952" y="256" width="268" height="56" rx="7" fill="url(#emberGrad)"/>
<text x="1086" y="291" text-anchor="middle" font-size="15" font-weight="bold" fill="#101024">LAUNCH</text>
<text x="952" y="338" font-size="11" fill="#55556F">Fabric · fullscreen off</text>
</g>
<g font-family="Consolas, Menlo, monospace">
<rect x="232" y="412" width="1016" height="220" rx="10" fill="rgba(2,2,8,0.9)" stroke="#8C8CFF" stroke-opacity="0.09"/>
<rect x="232" y="412" width="1016" height="36" rx="10" fill="rgba(0,0,0,0.5)"/>
<circle cx="258" cy="430" r="5" fill="#FF6B1A"/>
<circle cx="276" cy="430" r="5" fill="#55556F"/>
<circle cx="294" cy="430" r="5" fill="#55556F"/>
<text x="320" y="434" font-size="11" fill="#8F8FB0">game log — latest</text>
<text x="264" y="474" font-size="12" fill="#B9B9D9">[ok] profile loaded — Alex-42</text>
<text x="264" y="500" font-size="12" fill="#B9B9D9">[ok] fabric-loader 0.16 resolved</text>
<text x="264" y="526" font-size="12" fill="#FFD479">[warn] optional pack missing, skipped</text>
<text x="264" y="552" font-size="12" fill="#7DFF9A">[ok] handshake 12 ms — ready to join</text>
<rect x="264" y="572" width="420" height="34" rx="7" fill="none" stroke="#8C8CFF" stroke-opacity="0.16"/>
<text x="282" y="594" font-size="12" fill="#55556F">type a command…</text>
</g>
<text x="640" y="784" text-anchor="middle" font-family="Consolas, Menlo, monospace" font-size="11" fill="#55556F">Mockup — illustrative, not a screenshot</text>
</svg>
